<?xml version="1.0" encoding="utf-8"?>
<!-- Generator: Adobe Illustrator 23.0.3, SVG Export Plug-In . SVG Version: 6.00 Build 0)  -->
<svg version="1.1" id="圖層_1" xmlns="http://www.w3.org/2000/svg" xmlns:xlink="http://www.w3.org/1999/xlink" x="0px" y="0px"
	 viewBox="0 0 134.2 134.8" style="enable-background:new 0 0 134.2 134.8;" xml:space="preserve">
<style type="text/css">
	.st0{fill:#FFFFFF;}
</style>
<title>資產 3</title>
<g>
	<g id="Layer_2">
		<path class="st0" d="M131.4,91.2c-0.1-0.3-0.3-0.5-0.4-0.8c-3.7,1.7-7.5,3.1-11.4,4.3v-5.1c3.9-1.1,7.9-1.4,11.9-1l0,0
			c-2.8-8.6-4-17.7-3.6-26.8c0-0.4-0.3-0.7-0.6-0.7c-0.3,0-0.5,0.1-0.6,0.3c-5.1,7.8-18.1,27.1-21.2,31.9c0,0.1-0.3,0.5-0.7,1.1
			c-0.1-0.4-0.1-0.8-0.2-1.2c-0.9-8.3-0.6-16.7,0.8-25c1.3-8,1.9-14.5,5.6-21.7c0.2-0.4,1.3-2.1-1.2-2.1c-6.9,0-26.6-0.6-26.6-0.6
			V40c3.8,0.2,15.4,1.9,15.2,1.8c-3.4-4.6-6.5-18.2-6.6-20.8H80.9v-1.6c0.4-0.1,2.7-0.2,2.8-0.4c0.5-1.4,0.9-2.7,1.3-4.2h-4.1V12
			c2.1-0.9,4.4-1.1,6.6-0.4c1.5,0.5,3,0.9,4.6,1.3c2.6,0.5,5.3,0.4,7.8-0.3c1.3-0.3,2.5-0.6,3.8-0.8c1.8-0.4,6-2.2,7.9-1.7
			c-2-1.6-4.3-2.9-6.7-3.9c-1.1-0.5-2.4-0.8-3.6-0.8c-3.8-0.2-4.9,1.4-8.8-0.4c-0.6-0.2-1.1-0.4-1.6-0.7c-2.9-2.1-6.5-2.8-10-1.9V0
			h-3.7v14.7h-4.1c0.5,1.5,0.8,2.9,1.3,4.2c0.1,0.2,2.4,0.3,2.8,0.4V21L69,20.9c0,0-5.6,7.1-5.5,12.2l0,0c-0.6,3.2,0,6.5,1.5,9.3
			c3-2.1,6.5-2.1,10-2.4l0,0v3.6H56.1c-0.2,0-0.4,0-0.6,0.1c-1.5,1.3-2.8,2.9-3.7,4.7c-3.4,7.1-4.1,12.7-4.7,19.9
			c-0.5,6.2-0.4,12.4,0.4,18.6c0.7,5.3,1.9,10.6,4.5,15.3c0.6,1.1,1.3,2.1,2.1,3.2c1.3-1.2,2.8-2.2,4.5-2.8c2.9-1,5.9-1.7,9-2
			c2.4-0.3,4.9-0.5,7.4-0.7v11.8l0,0c-5.2,0.1-10.5-0.7-15.5-2.3c-4.5-1.4-8.5-4.1-11.5-7.8c-1-1.2-2.3-1.9-3.8-2
			c-3.9-0.3-7.7-0.8-11.7-1.3v-6c4.1,0.3,8.1,1.5,11.8,3.3c-0.3-1.6-0.6-3.1-0.9-4.5c-1-4.5-1.7-9.1-1.8-13.8
			c-0.1-3,0.5-6.1,1.8-8.8c0.3-0.7,0.7-1.4,1.2-2c0.4-0.7-12-1.8-12-1.8v-3.1c4,0.1,4.4-0.2,8.3,0.6c-0.9-2.2-1.4-4.6-1.3-7
			c0.1-2.2,0.4-4.3,0.8-6.5h-7.8v-1.5l2.4-0.1v-2.5l-2.4-0.1v-1.2h-3.7v1.2l-2.4,0.1v2.5l2.4,0.1v1.3c0,0-6.2,0-6,0
			c-3.6,4.2-4.8,9.5-2.5,14.8c2.7-1.5,5.6-1.5,8.5-1.7v3.1c0,0-12,0.4-12.4,0.8s-0.6,0.7-0.9,1.1c-1.8,2.4-3,5.2-3.4,8.2
			c-1.1,5.4-0.6,11,1.4,16.2c0.5,1.2,1.1,2.3,1.8,3.4c3.5-2.5,7.4-2.6,11.2-2.6c0.8,0,1.5,0.1,2.3,0.1v6c-12-2-28.4-9.3-28.9-6.9
			s7.7,4,10.4,5c0.3,0.1,0.5,0.2,0.7,0.4c-0.5,0-0.9,0-1.4,0c-0.8,0-1.5,0-2.3-0.1c-0.7-0.1-1.3,0.2-1.8,0.7
			c-3.1,2.8-3.9,8.7-1.5,12l0,0c3.3-1.7,6.8-1.7,10.3-1.4c2.7,0.2,5.3,0.6,7.9,0.9c-2.1-2.5-3.5-5.4-2.5-9.1
			c1.4,0.6,2.8,1.1,4.1,1.6c0.2,0.1,0.3,0.6,0.3,0.9c0.2,3.9,1.1,7.8,2.6,11.5c4.9,11.3,16.5,19.8,28.1,20.9
			c6.6,0.6,33.8,1,40.8,0.4c10.3-0.8,25.3-9,26.8-21.2c0.1-0.5,0.1-1.1,0.1-1.6c0-1,0.5-1.9,1.4-2.4c0.2-0.1,0.5-0.3,0.7-0.4
			c2.1-0.9,3.4-3,3.2-5.3c0-0.5,0.3-0.9,0.7-1.1c1.5-0.9,3-1.8,4.4-2.7c0.5-0.4,0.9-0.8,1.3-1.2v-0.9
			C133.3,95.5,132.4,93.4,131.4,91.2z M63,93.6c-1.7,0.3-3.4,0.7-5,1.1c-2.2-9.1-2.8-18.5-1.8-27.9c0.8-7.4,1-12.3,3.9-19.1
			c1.7-0.1,3.4,0.2,5.1,0.6c-2.8,6.7-3.1,11.5-3.8,18.4C60.4,75.8,61,84.9,63,93.6z M24.3,87.4c-1.6,0-3.2,0.1-4.5,0.3
			c-1.4-5.4-2-10.5-0.6-16.2c0.2-0.9,0.5-1.8,0.8-2.7c1.6,0,3.2,0.1,4.7,0.2c-0.3,0.9-0.6,1.9-0.8,2.9C22.4,77.4,23,82.3,24.3,87.4
			L24.3,87.4z M25,58.1c-0.4-2.2,0-4.4,1.2-6.2L34,52c-0.1,0.9-0.2,1.8-0.2,2.7c0,0.9,0,1.9,0.2,2.8c-1.1-0.1-2.2-0.2-3.3-0.2
			C28.8,57.3,26.9,57.5,25,58.1z M30.9,71.8c0.3-1,0.5-2,0.8-2.9c1.2,0.1,2.6,0.1,4.6,0.3c-0.3,0.8-0.6,2.2-0.8,3
			c-1.4,5.5-1,9.9-0.2,15.2c-1.6-0.1-3.2-0.2-4.5-0.2C29.9,81.7,29.5,77.4,30.9,71.8L30.9,71.8z M88.8,67.3c0.7-6,1.5-13,3.9-18.9
			c1.8-0.1,3.5,0,5.3,0.3c-2.7,5.9-3.3,12.7-4,18.6c-0.9,7.7-0.4,15.5,1.6,22.9c0.4,1.6,0.9,3.1,1.4,4.5c-1.7-0.3-3.6-0.6-5.6-0.8
			c-0.3-1-0.6-2.1-0.9-3.3C88.5,83,87.9,75.1,88.8,67.3L88.8,67.3z M78.9,92.8v0.1c-1.6-0.1-3.2-0.1-4.9-0.1h-0.3
			c-2-8.6-2.6-17.5-1.7-26.3c0.7-6.8,1.5-12.3,4-18.4c1.8-0.4,3.6-0.3,5.3,0.2c-2.6,6.2-3.4,11.7-4.1,18.2
			C76.2,75.3,76.8,84.2,78.9,92.8L78.9,92.8z M80.1,34.1c-3.3,0-6.5,0.1-9.8,0.5c0,0-0.6-5.1,1.8-8.8c4.6,0.3,9.2,0.3,13.8,0
			c1,3.3,1.1,6.3,3.1,9.7C86.1,34.8,83.1,34.4,80.1,34.1z M98.6,108.6c-4.8,2.3-10.2,2.4-15.4,2.9V99.6c7.5,0,14.9,0.8,22.2,2.4
			C103.9,104.8,101.5,107.1,98.6,108.6z M114.6,96.2c-2.5,0.7-5,1.3-7.5,2c-0.5,0.1-0.8,0.3-0.8,0.9c0,0.3-0.1,0.6-0.1,0.9
			c-0.6-1.4-1-2.8-1.2-4.3c3.1-1.8,6.3-3.4,9.6-4.7V96.2z"/>
	</g>
</g>
</svg>
