<svg xmlns="http://www.w3.org/2000/svg" viewBox="0 0 121.86 134.75"><defs><style>.cls-1{fill:#fff;}</style></defs><title>資產 1</title><g id="圖層_2" data-name="圖層 2"><g id="Layer_2" data-name="Layer 2"><path class="cls-1" d="M121.63,130.55c-1.87-8.26-3.7-26.62-5.57-34.88-1-4.39-3.76-7.54-7.17-10.21C103,80.84,96.17,78.1,89.13,75.83c-2.88-.93-5.86-1.54-8.72-2.51a26.33,26.33,0,0,1-6-2.75c-2-1.32-2-4,0-5,5.95-2.88,9.13-8.78,10.24-15.09.56-3.22.62-2.08.45-5.33s.47-5.84,3.59-7.32c2.74-1.3,3-4.6,1.71-7.49a22.41,22.41,0,0,1-1-2.48c-.61-1.93-.33-3.15,1.88-4.18C97.87,20.57,98.54,15.79,93,11,84.26,3.47,73.84.41,62.52,0q-.8,0-1.59,0T59.34,0C48,.41,37.6,3.47,28.9,11c-5.57,4.81-4.91,9.59,1.7,12.68,2.22,1,2.5,2.25,1.88,4.18a20.64,20.64,0,0,1-1,2.48c-1.32,2.89-1,6.19,1.72,7.49a6,6,0,0,1,3.63,5.29c.36,5.53-.24,6.67,1.52,12a17.43,17.43,0,0,0,9.12,10.41c2,1,2,3.7,0,5a26.13,26.13,0,0,1-6,2.75c-2.86,1-5.84,1.58-8.71,2.51-7,2.27-13.88,5-19.77,9.63-3.4,2.67-6.18,5.82-7.17,10.21-1.86,8.26-3.69,26.62-5.57,34.88-.71,3.15.16,4.2,3.41,4.2l57.29,0,57.29,0C121.47,134.75,122.35,133.7,121.63,130.55ZM68.27,27H83.74a.75.75,0,0,1,.75.74v4.11a.76.76,0,0,1-.75.75h-16a8.31,8.31,0,0,0,.53-5.6Zm-8-3.78A5.85,5.85,0,1,1,54.39,29,5.84,5.84,0,0,1,60.23,23.19ZM36.72,32.57a.75.75,0,0,1-.75-.75V27.71a.74.74,0,0,1,.75-.74H52.19a8.31,8.31,0,0,0,.53,5.6Zm5.64,17.19c-.51-4-.09-3.81-.09-7.67H79.6c0,3.86.41,3.62-.09,7.67-1,7.66-4.55,11.37-12.22,12.41a42,42,0,0,1-6.36.36,42,42,0,0,1-6.36-.36C46.91,61.13,43.32,57.42,42.36,49.76Zm-.94,52.55a1,1,0,0,1-1,1h-18a1,1,0,0,1-.95-1v-3a1,1,0,0,1,.95-1h18a1,1,0,0,1,1,1ZM29.57,90.56c-2.58.83-5.19,1.58-7.74,2.5-1.62.58-2.8.39-3.32-1.36-.45-1.54-1.68-3.29.75-4.34l21.83-9.49,3.31,8ZM45.29,77.41l1.25-.76a12.68,12.68,0,0,1,2.67-1.31,5.83,5.83,0,0,1,.63-.16,4.24,4.24,0,0,1,1.23,0,4.76,4.76,0,0,1,.62.11,13.62,13.62,0,0,1,4.06,2.22c.47.33,1,.7,1.51,1.1l.3.21h0l-4.21,3.56-4.47,3.77L46.15,79.5C45.86,78.8,45.58,78.1,45.29,77.41ZM58.85,93.16l-4.17,8.57-6-10.56,7-5.77ZM53.26,72c.34-1.38.7-2.81,1.07-4.33h13.2c.38,1.52.73,3,1.07,4.33-3.47,2.43-5.67,3.74-7.67,4C58.93,75.77,56.74,74.46,53.26,72Zm13.93,29.68L63,93.16l3.17-7.76,7,5.77ZM73,86.11l-8.68-7.33c6.2-4.59,7-4.68,12.26-1.37Zm7.69,26.55a1.3,1.3,0,0,1-1.3,1.29h-4a1.29,1.29,0,0,1-1.29-1.29v-4a1.3,1.3,0,0,1,1.29-1.3h4a1.3,1.3,0,0,1,1.3,1.3Zm0-8.91a1.3,1.3,0,0,1-1.3,1.29h-4a1.29,1.29,0,0,1-1.29-1.29v-4a1.29,1.29,0,0,1,1.29-1.29h4a1.3,1.3,0,0,1,1.3,1.29Zm8.93,8.91A1.29,1.29,0,0,1,88.32,114h-4a1.3,1.3,0,0,1-1.3-1.29v-4a1.3,1.3,0,0,1,1.3-1.3h4a1.3,1.3,0,0,1,1.29,1.3Zm0-8.91A1.29,1.29,0,0,1,88.32,105h-4a1.3,1.3,0,0,1-1.3-1.29v-4a1.3,1.3,0,0,1,1.3-1.29h4a1.29,1.29,0,0,1,1.29,1.29Zm8.94,8.91A1.29,1.29,0,0,1,97.26,114H93.21a1.29,1.29,0,0,1-1.29-1.29v-4a1.3,1.3,0,0,1,1.29-1.3h4.05a1.3,1.3,0,0,1,1.29,1.3Zm0-8.91A1.29,1.29,0,0,1,97.26,105H93.21a1.29,1.29,0,0,1-1.29-1.29v-4a1.29,1.29,0,0,1,1.29-1.29h4.05a1.29,1.29,0,0,1,1.29,1.29Zm8.94,8.91a1.3,1.3,0,0,1-1.3,1.29h-4a1.29,1.29,0,0,1-1.29-1.29v-4a1.3,1.3,0,0,1,1.29-1.3h4a1.31,1.31,0,0,1,1.3,1.3Zm0-8.91a1.3,1.3,0,0,1-1.3,1.29h-4a1.29,1.29,0,0,1-1.29-1.29v-4a1.29,1.29,0,0,1,1.29-1.29h4a1.3,1.3,0,0,1,1.3,1.29Zm-4.14-12c-.52,1.75-1.69,1.94-3.32,1.36-2.55-.92-5.16-1.67-7.74-2.5l-14.82-4.7c1-2.56,2-4.75,3.3-8l21.83,9.49C105,88.41,103.81,90.16,103.35,91.7Z"/></g></g></svg>