<svg xmlns="http://www.w3.org/2000/svg" viewBox="0 0 120.16 109.81"><defs><style>.cls-1{fill:#fff;}</style></defs><title>資產 4</title><g id="圖層_2" data-name="圖層 2"><g id="Layer_2" data-name="Layer 2"><path class="cls-1" d="M17.79,41.44c-2.57-3.32-1.08-8.35,3.1-10.4,7.36-3.6,5.38-2.94,12.77-6.47,1.84-.88,3.64-1.84,5.54-2.53,3.85-1.39,7.47.19,9.38,4.14C35.11,32.69,31.13,35,17.79,41.44ZM19.65,72h0c-4.09-3.19-7.08-7.82-9.12-14.16l0-.15c-.17-.55-.35-1.13-.52-1.73A10.15,10.15,0,0,0,9.28,68C12.88,73.51,16.36,72.44,19.65,72ZM69.21,36.16A39.63,39.63,0,0,1,95,35.23l14-7.42L96.8,5.9S67.12,21,49.51,30.1,32.2,39.22,14.62,48.23c-1,.5-1.12,1.56-1.11,2.6a19.36,19.36,0,0,0,1.22,5.66c1.81,5.62,4.62,11,9.55,14.44a2.4,2.4,0,0,0,2.63.34l18.21-9.65A40.2,40.2,0,0,1,69.21,36.16Zm50.42-21.8c-.61-1.37-1.32-2.7-2-4-1.42-2.67-2.83-5.35-4.25-8A3.12,3.12,0,0,0,109.56.49c3.18,6,9.8,18.38,9.8,18.38a12.12,12.12,0,0,0,.74-2,2,2,0,0,0,.06-.48A4.74,4.74,0,0,0,119.63,14.36ZM97.06,65.55l-7.72,3.69,4.08-7.52a2.43,2.43,0,1,0-4.27-2.32l-4.08,7.52L84,58.43a2.43,2.43,0,1,0-4.82.64l1.12,8.48-5.89-6.21a2.43,2.43,0,0,0-3.52,3.35l5.89,6.21-8.42-1.56a2.43,2.43,0,1,0-.88,4.77l8.41,1.56-7.72,3.69A2.43,2.43,0,0,0,69.48,84a2.45,2.45,0,0,0,.73-.22l7.72-3.68-4.08,7.52a2.43,2.43,0,0,0,1,3.29,2.36,2.36,0,0,0,1.48.27,2.41,2.41,0,0,0,1.82-1.24l4.08-7.52,1.12,8.48a2.43,2.43,0,0,0,4.81-.63L87,81.74,92.91,88a2.43,2.43,0,1,0,3.52-3.35l-5.89-6.2L99,80a2.79,2.79,0,0,0,.76,0,2.43,2.43,0,0,0,.13-4.8l-8.41-1.56,7.72-3.68a2.43,2.43,0,1,0-2.09-4.39ZM116.67,19.3C113.91,14,111.08,8.81,108.4,3.51c-1.06-2.09-2.48-3.4-4.87-3.51l-1.11.35c-2.35,2-2.66,3.67-1.21,6.46q3.57,6.81,7.14,13.62a34.22,34.22,0,0,0,2.11,3.74,4,4,0,0,0,5.05,1.37,4.08,4.08,0,0,0,1.72-5A7.64,7.64,0,0,0,116.67,19.3ZM112,52A35.92,35.92,0,0,1,91.7,108.78a8.63,8.63,0,0,0-1,.37l-5,.66c-1.92-.09-3.84-.09-5.75-.27A35.91,35.91,0,1,1,112,52Zm-4.91,18.49A23.83,23.83,0,1,0,86.59,97.45,23.85,23.85,0,0,0,107.13,70.51ZM42.51,69.18c0,.36-8.34,28-9,33.12a1.44,1.44,0,0,1-1.19,1.25L.93,102.9A1.19,1.19,0,0,1,0,101.62L.69,94.5a1.14,1.14,0,0,1,.88-.87c1.82-.38,19.51-4.39,19.51-4.39s2.55-10.77,2.83-11.6.47-2.22,1.16-2.72a1.56,1.56,0,0,1,1.5,0,10,10,0,0,1,1.31.84,7.44,7.44,0,0,0,6.43.42,8.56,8.56,0,0,0,3.6-2.54l.15-.2c.78-1,1-2.55,2-3.35C40.76,69.49,41.36,68.87,42.51,69.18ZM19.16,85.92c-1.39-2.09-4.42-3.32-7.75-2.9-3.76.47-6.64,2.89-7,5.67C7.64,87.91,17.5,86.2,19.16,85.92Z"/></g></g></svg>