<svg xmlns="http://www.w3.org/2000/svg" viewBox="0 0 152.83 137.02"><defs><style>.cls-1{fill:#fff;}.cls-2,.cls-3{fill:none;stroke:#fff;}.cls-2{stroke-linecap:round;stroke-linejoin:round;stroke-width:6px;}.cls-3{stroke-miterlimit:10;}.cls-4{fill:#a91026;}</style></defs><g id="圖層_2" data-name="圖層 2"><g id="Layer_1_1:1_" data-name="Layer 1 (1:1)"><polygon class="cls-1" points="48.53 82.61 35.46 89.89 38.63 95.59 53.44 89.33 48.53 82.61"/><path class="cls-2" d="M18.58,64.18a14.18,14.18,0,0,0,.3,7.9,34.56,34.56,0,0,0,13,17.53c1,.71,3.31-.06,4.46-.68l21-11.13c.57-.3,3.76-1.75,4.34-2.06C67.33,63.06,76.13,53,90.93,47.27a43.6,43.6,0,0,1,10.67-2.62c7.09-.94,9.87-.37,16.83,1.09a24.08,24.08,0,0,1,3.8-2.28c10-5.31,17.81-9.9,17.81-9.9l-13.5-24.9"/><path class="cls-3" d="M136.48,88c-2-15.93-17.07-27.39-33.22-25.34A29.72,29.72,0,1,0,136.48,88Z"/><path class="cls-3" d="M123.91,81.8l-9.63,4.6L119.37,77A3,3,0,0,0,114,74.12L109,83.5l-1.4-10.58a3,3,0,1,0-6,.79l1.4,10.58-7.35-7.74a3,3,0,0,0-4.4,4.17l7.35,7.75-10.5-2a3,3,0,1,0-1.1,6l10.49,2L87.8,99a3,3,0,1,0,2.61,5.48L100,99.9,95,109.28a3,3,0,0,0,1.22,4.11,2.93,2.93,0,0,0,1.84.34,3,3,0,0,0,2.27-1.55l5.09-9.39,1.4,10.59a3,3,0,0,0,6-.79L111.38,102l7.35,7.75a3,3,0,0,0,4.4-4.18l-7.35-7.74,10.5,1.94a3,3,0,1,0,1.1-6l-10.49-1.94,9.63-4.6a3,3,0,0,0-2.61-5.47Z"/><path class="cls-2" d="M140.63,30.16a4.94,4.94,0,0,0,6.31,1.71,5.08,5.08,0,0,0,2.65-6c-.18-.54-.86-2-1.13-2.52-3.45-6.56-6.65-13.13-10-19.74"/><path class="cls-2" d="M3,125.18l.66-7.26a1.43,1.43,0,0,1,1.1-1.09c2.26-.47,24.34-5.47,24.34-5.47s3.19-13.44,3.53-14.47.59-2.77,1.45-3.4A1.94,1.94,0,0,1,36,93.43a12.25,12.25,0,0,1,1.64,1,9.29,9.29,0,0,0,8,.53,10.6,10.6,0,0,0,4.49-3.18l.2-.24c1-1.26,1.27-4.55,2.52-5.55"/><path class="cls-1" d="M18.65,103.5c3.5,0,6.55,1.45,8.05,3.71-2.06.36-14.37,2.49-18.43,3.46.48-3.47,4.07-6.48,8.77-7.07a12.54,12.54,0,0,1,1.61-.1m0-3a16.61,16.61,0,0,0-2,.12c-6,.76-10.69,4.72-11.36,9.64a3,3,0,0,0,3,3.41,2.74,2.74,0,0,0,.7-.09c4-1,16.8-3.16,18.24-3.41a3,3,0,0,0,2-4.62c-2.07-3.12-6.12-5-10.55-5Z"/><path class="cls-4" d="M25,51.71c-3.21-4.14-1.35-10.42,3.86-13,9.18-4.5,6.72-3.67,16-8.08a74,74,0,0,1,6.91-3.15c4.8-1.74,9.32.22,11.69,5.15C46.61,40.79,41.64,43.66,25,51.71Z"/><path class="cls-4" d="M27.32,89.82h0c-5.1-4-8.84-9.75-11.38-17.66L15.89,72c-.22-.69-.44-1.41-.65-2.16a12.67,12.67,0,0,0-.86,15.06C18.87,91.73,23.21,90.4,27.32,89.82Z"/><path class="cls-4" d="M89.17,45.12a49.2,49.2,0,0,1,11.27-2.86A49.93,49.93,0,0,1,121.29,44l17.49-9.26L123.6,7.36s-37,18.85-59,30.21S43,49,21,60.18c-1.24.63-1.39,2-1.38,3.25a23.84,23.84,0,0,0,1.52,7.06c2.25,7,5.76,13.69,11.92,18a3,3,0,0,0,3.27.42l22.73-12A50.15,50.15,0,0,1,89.17,45.12Z"/><path class="cls-4" d="M152.08,17.91c-.77-1.71-1.65-3.36-2.53-5-1.77-3.33-3.53-6.67-5.31-10-1.08-2-2.73-2.85-4.73-2.3,4,7.54,12.23,22.93,12.23,22.93a14.82,14.82,0,0,0,.93-2.51,2.88,2.88,0,0,0,.07-.59A6.1,6.1,0,0,0,152.08,17.91Z"/><path class="cls-4" d="M142.6,64.91c19.73,25.82,6.26,63.39-25.38,70.84a8,8,0,0,0-1.2.46l-6.18.81c-2.39-.1-4.79-.11-7.17-.33A44.81,44.81,0,1,1,142.6,64.91Z"/><path class="cls-1" d="M136.48,88c-2-15.93-17.07-27.39-33.22-25.34A29.72,29.72,0,1,0,136.48,88Z"/><path class="cls-4" d="M123.91,81.8l-9.63,4.6L119.37,77A3,3,0,0,0,114,74.12L109,83.5l-1.4-10.58a3,3,0,1,0-6,.79l1.4,10.58-7.35-7.74a3,3,0,0,0-4.4,4.17l7.35,7.75-10.5-2a3,3,0,1,0-1.1,6l10.49,2L87.8,99a3,3,0,1,0,2.61,5.48L100,99.9,95,109.28a3,3,0,0,0,1.22,4.11,2.93,2.93,0,0,0,1.84.34,3,3,0,0,0,2.27-1.55l5.09-9.39,1.4,10.59a3,3,0,0,0,6-.79L111.38,102l7.35,7.75a3,3,0,0,0,4.4-4.18l-7.35-7.74,10.5,1.94a3,3,0,1,0,1.1-6l-10.49-1.94,9.63-4.6a3,3,0,0,0-2.61-5.47Z"/><path class="cls-4" d="M148.39,24.08c-3.45-6.56-7-13.08-10.32-19.69C136.74,1.78,135,.14,132,0L130.6.44C127.68,3,127.29,5,129.1,8.49q4.44,8.5,8.9,17a41.79,41.79,0,0,0,2.63,4.67,4.94,4.94,0,0,0,6.31,1.71,5.1,5.1,0,0,0,2.15-6.19A10.34,10.34,0,0,0,148.39,24.08Z"/><path class="cls-4" d="M55.85,86.33c-.06.44-10.42,34.94-11.26,41.33a1.82,1.82,0,0,1-1.49,1.56L4,128.4a1.5,1.5,0,0,1-1.16-1.59l.86-8.89a1.43,1.43,0,0,1,1.1-1.09c2.26-.47,24.34-5.47,24.34-5.47s3.19-13.44,3.53-14.47.59-2.77,1.45-3.4A1.94,1.94,0,0,1,36,93.43a12.25,12.25,0,0,1,1.64,1,9.29,9.29,0,0,0,8,.53,10.6,10.6,0,0,0,4.49-3.18l.2-.24c1-1.26,1.24-3.18,2.49-4.18C53.66,86.71,54.41,85.94,55.85,86.33Z"/><path class="cls-4" d="M26.7,107.21c-1.73-2.6-5.51-4.13-9.66-3.61-4.7.59-8.29,3.6-8.77,7.07C12.33,109.7,24.64,107.57,26.7,107.21Z"/></g></g></svg>