<svg xmlns="http://www.w3.org/2000/svg" viewBox="0 0 123.43 136.39"><defs><style>.cls-1{fill:#a91026;}</style></defs><title>資產 5</title><g id="圖層_2" data-name="圖層 2"><g id="Layer_2" data-name="Layer 2"><path class="cls-1" d="M39.76,72.81,36.3,59.49H13.35L0,136.39H15.8v-18C15.8,100.78,24.83,82.93,39.76,72.81Z"/><path class="cls-1" d="M7.85,30.71H42.2a1.78,1.78,0,0,0,1.69-2.36L40.74,19a1.77,1.77,0,0,0-1.69-1.22H26.66v-6c0-1.68.64-1.48,1.34-1.55,2.11-.21,4.26-.23,6.4-.29,3.53-.1,10.06-1.4,9.8-3.68-.17-.69-6-1.55-8.89-2.48C32.88,3.05,30.46,2.2,28,1.39c-.83-.28-1.87,0-2.38-1.09C25.38-.3,24.19.07,24,.79a3.33,3.33,0,0,0,0,.89c0,2,0,11,0,16.12H11.43A1.79,1.79,0,0,0,9.76,19L6.18,28.28A1.79,1.79,0,0,0,7.85,30.71ZM26.74,3.65C28,3.78,31,4.71,34.08,5.36c2.12.45,4.38.6,5.85.94.45.11.72.65.3.83-1.41.63-2.68.79-5.53.87-3,.09-6.92.11-8,.22Zm6.85,17.77h4.5a.66.66,0,0,1,.63.42L40.3,26.3a.62.62,0,0,1-.62.8H33.59Zm-11.68,0h7.27V27.1H21.91ZM11,26.3l1.59-4.46a.65.65,0,0,1,.62-.42H17.5V27.1H11.65A.62.62,0,0,1,11,26.3Z"/><path class="cls-1" d="M14,53.6H35.65a2.88,2.88,0,0,0,2.88-2.89l1.8-17.44h-31l1.8,17.44A2.89,2.89,0,0,0,14,53.6Z"/><rect class="cls-1" x="52.1" y="110.17" width="15.61" height="26.22"/><rect class="cls-1" x="80.63" y="110.17" width="15.61" height="26.22"/><path class="cls-1" d="M107.83,83.07l-.16-.13a39.89,39.89,0,0,0-26.43-9.77H74.83c0-4,0-8.57,0-9.77,0-3.35,1.28-2.95,2.68-3.09,4.21-.41,8.52-.46,12.8-.58,7-.2,20.1-2.8,19.59-7.36-.36-1.37-12-3.09-17.77-4.95-4.88-1.56-9.7-3.25-14.54-4.88-1.66-.55-3.73,0-4.76-2.18-.55-1.19-2.93-.45-3.34,1a6.57,6.57,0,0,0-.1,1.78v30H67a39.87,39.87,0,0,0-25.11,8.68c-.49.39-1,.8-1.45,1.22-9.66,8.58-15.6,20.25-15.6,33.12v20.2H47.41V106.18H72.25v30.21H76V106.18h24.85v30.21h22.58v-20.2C123.43,103.32,117.49,91.65,107.83,83.07ZM75,47.06c2.53.26,8.55,2.11,14.66,3.41,4.24.9,8.76,1.2,11.7,1.89.89.21,1.43,1.29.59,1.66-2.82,1.25-5.35,1.57-11,1.74-6,.17-13.82.22-15.9.43ZM54.7,98H44.53a3.27,3.27,0,0,1,0-6.54H54.7a3.27,3.27,0,1,1,0,6.54Zm24.18,0H68.72a3.27,3.27,0,0,1,0-6.54H78.88a3.27,3.27,0,1,1,0,6.54Zm24.19,0H92.9a3.27,3.27,0,0,1,0-6.54h10.17a3.27,3.27,0,1,1,0,6.54Z"/></g></g></svg>