<svg xmlns="http://www.w3.org/2000/svg" viewBox="0 0 149.62 167.56"><defs><style>.cls-1{fill:none;stroke:#fff;stroke-linecap:round;stroke-miterlimit:10;stroke-width:10px;}.cls-2{fill:#fff;}.cls-3{fill:#a91026;}</style></defs><g id="圖層_2" data-name="圖層 2"><g id="Layer_1_1:1_" data-name="Layer 1 (1:1)"><line class="cls-1" x1="21.05" y1="69.88" x2="41.55" y2="69.88"/><line class="cls-1" x1="16.32" y1="41.8" x2="45.77" y2="41.86"/><path class="cls-2" d="M108.68,101l-.19-.17c-9.08-8-22.46-11.64-34.56-11.64l-13.85.56q-3.93.16-7.82.72c-14.08,2-17.73,2.42-25.87,9-.61.5-1.22,1-1.81,1.53C12.52,111.73,9.16,126.3,9.16,142.36v25.2h119v-25.2C128.15,126.3,120.74,111.73,108.68,101Z"/><path class="cls-3" d="M50.41,90.72,45.3,71.6H16.66L0,167.56H19.72V145.08C19.72,123.12,32.07,97.57,50.41,90.72Z"/><path class="cls-3" d="M9.8,38.32H52.66a2.22,2.22,0,0,0,2.11-2.94L50.84,23.73a2.22,2.22,0,0,0-2.11-1.52H33.27c0-2.65,0-6.56,0-7.45,0-2.09.8-1.85,1.68-1.93,2.63-.26,5.32-.29,8-.37,4.4-.12,12.55-1.74,12.23-4.59C54.94,7,47.7,5.94,44.06,4.78c-3-1-6.05-2-9.07-3-1-.35-2.33,0-3-1.37-.34-.74-1.83-.28-2.09.62a4.1,4.1,0,0,0-.06,1.11V22.21H14.26a2.22,2.22,0,0,0-2.08,1.43L7.71,35.29A2.23,2.23,0,0,0,9.8,38.32Z"/><path class="cls-2" d="M33.37,4.56c1.58.16,5.34,1.31,9.15,2.12,2.65.57,5.47.76,7.31,1.18.56.13.89.81.37,1-1.76.78-3.34,1-6.9,1.08-3.76.11-8.63.14-9.93.28Z"/><path class="cls-2" d="M41.92,26.73h5.62a.81.81,0,0,1,.77.52l2,5.57a.77.77,0,0,1-.78,1H41.92Z"/><rect class="cls-2" x="27.34" y="26.73" width="9.06" height="7.08"/><path class="cls-2" d="M13.76,32.82l2-5.57a.81.81,0,0,1,.78-.52h5.32v7.08h-7.3A.76.76,0,0,1,13.76,32.82Z"/><path class="cls-3" d="M17.48,67.88h27a3.6,3.6,0,0,0,3.6-3.6l2.25-21.76H11.63l2.25,21.76A3.6,3.6,0,0,0,17.48,67.88Z"/><rect class="cls-3" x="60.61" y="134.84" width="19.47" height="32.72"/><rect class="cls-3" x="96.21" y="134.84" width="19.47" height="32.72"/><path class="cls-3" d="M130.15,101l-.19-.17A49.87,49.87,0,0,0,97,88.67H89c0-5,0-10.69,0-12.19,0-4.18,1.6-3.69,3.34-3.86,5.26-.51,10.64-.57,16-.72,8.79-.25,25.07-3.49,24.44-9.18-.45-1.71-14.92-3.86-22.18-6.18-6.08-1.95-12.09-4.06-18.14-6.08-2.07-.7-4.66,0-5.93-2.73-.69-1.49-3.66-.57-4.17,1.24a8.12,8.12,0,0,0-.13,2.21V88.67h-3A49.8,49.8,0,0,0,47.86,99.5c-.61.5-1.22,1-1.81,1.53C34,111.73,26.58,126.3,26.58,142.36v25.2H54.75v-37.7h31v37.7h4.68v-37.7h31v37.7h28.18v-25.2C149.62,126.3,142.2,111.73,130.15,101Z"/><path class="cls-2" d="M89.17,56.09c3.15.33,10.67,2.64,18.3,4.26,5.29,1.12,10.93,1.5,14.59,2.35,1.11.26,1.79,1.61.74,2.08-3.51,1.55-6.68,2-13.79,2.16-7.5.22-17.24.28-19.84.55Z"/><path class="cls-2" d="M63.85,119.61H51.16a4.08,4.08,0,0,1,0-8.16H63.85a4.08,4.08,0,1,1,0,8.16Z"/><path class="cls-2" d="M94,119.61H81.35a4.08,4.08,0,0,1,0-8.16H94a4.08,4.08,0,0,1,0,8.16Z"/><path class="cls-2" d="M124.21,119.61H111.53a4.08,4.08,0,0,1,0-8.16h12.68a4.08,4.08,0,1,1,0,8.16Z"/></g></g></svg>