<svg xmlns="http://www.w3.org/2000/svg" viewBox="0 0 143.4 167.7"><defs><style>.cls-1{fill:#a91026;}.cls-2{fill:#fff;}</style></defs><title>資產 4</title><g id="圖層_2" data-name="圖層 2"><g id="Layer_5" data-name="Layer 5"><path class="cls-1" d="M129.64,129.12a1.62,1.62,0,0,1-1.61,1.61h-5a1.61,1.61,0,0,1-1.6-1.61v-5a1.61,1.61,0,0,1,1.6-1.61h5a1.62,1.62,0,0,1,1.61,1.61ZM95.13,167.68l43.73,0c4,0,5.13-1.3,4.25-5.22-2.34-10.28-.48-33.13-2.8-43.42-1.23-5.45-4.68-9.38-8.92-12.7-7.33-5.75-15.84-9.16-24.6-12-3.58-1.15-7.29-1.91-10.85-3.12a32.84,32.84,0,0,1-7.47-3.42c-2.47-1.64-2.46-5,0-6.25C95.91,78,99.86,70.65,101.24,62.8c.7-4,.77-2.58.56-6.63s.58-7.27,4.47-9.11c3.41-1.62,3.77-5.72,2.13-9.32a29.65,29.65,0,0,1-1.29-3.09c-.77-2.4-.42-3.93,2.33-5.21,8.23-3.83,9.06-9.79,2.12-15.78C100.73,4.31,87.76.51,73.68,0c-.67,0-1.33,0-2,0s-1.32,0-2,0C55.63.51,42.66,4.31,31.83,13.66c-6.93,6-6.11,12,2.12,15.78,2.75,1.28,3.1,2.81,2.34,5.21A27.7,27.7,0,0,1,35,37.74c-1.63,3.6-1.27,7.7,2.14,9.32a7.44,7.44,0,0,1,4.52,6.58c.44,6.89-.3,8.31,1.89,15a21.67,21.67,0,0,0,11.35,13c2.49,1.21,2.5,4.61,0,6.25a32.64,32.64,0,0,1-7.47,3.42c-3.55,1.21-7.27,2-10.85,3.12-8.76,2.83-17.26,6.24-24.59,12-4.24,3.32-7.7,7.25-8.93,12.7C.77,129.35,2.62,152.2.29,162.48c-.89,3.92.2,5.23,4.24,5.22l67.17,0H95.13M80.83,33.56h19.26a.93.93,0,0,1,.93.93v5.12a.93.93,0,0,1-.93.93H80.17a10.31,10.31,0,0,0,1-4.4A10.48,10.48,0,0,0,80.83,33.56Zm-10-4.7a7.28,7.28,0,1,1-7.27,7.28A7.28,7.28,0,0,1,70.82,28.86ZM41.56,40.54a.93.93,0,0,1-.93-.93V34.49a.93.93,0,0,1,.93-.93H60.82a10,10,0,0,0-.33,2.58,10.32,10.32,0,0,0,1,4.4Zm7,21.39c-.63-5-.11-4.74-.11-9.55H94.93c0,4.81.52,4.51-.12,9.55-1.19,9.54-5.66,14.15-15.2,15.45a59.37,59.37,0,0,1-7.91.44,59.52,59.52,0,0,1-7.92-.44C54.24,76.08,49.78,71.47,48.58,61.93Zm-1.17,65.4a1.18,1.18,0,0,1-1.18,1.18H23.82a1.19,1.19,0,0,1-1.19-1.18v-3.69a1.19,1.19,0,0,1,1.19-1.18H46.23a1.18,1.18,0,0,1,1.18,1.18ZM32.67,112.71c-3.22,1-6.46,2-9.64,3.11-2,.73-3.48.49-4.13-1.69-.57-1.92-2.09-4.09.94-5.41L47,96.92l4.11,9.93ZM52.23,96.35c.56-.36,1.07-.67,1.56-1a16.29,16.29,0,0,1,3.32-1.62,6.1,6.1,0,0,1,.79-.2,5,5,0,0,1,2.29.09,16.73,16.73,0,0,1,5.06,2.76c.58.41,1.21.86,1.88,1.36l.37.27h0l-5.24,4.42-5.57,4.7c-1.2-2.92-2.31-5.62-3.39-8.23C52.94,98.07,52.59,97.21,52.23,96.35ZM69.11,116l-5.2,25.26-7.43-27.74,8.69-7.19Zm-7-26.3,1.34-5.39H79.91l1.34,5.39c-4.33,3-7.07,4.65-9.55,4.93C69.21,94.3,66.47,92.67,62.15,89.65Zm17.33,51.54L74.28,116l4-9.67,8.69,7.19Zm7.22-34L75.9,98.05c7.71-5.71,8.73-5.82,15.26-1.7C89.74,99.78,88.31,103.27,86.7,107.17Zm9.57,33.05a1.61,1.61,0,0,1-1.61,1.6h-5a1.61,1.61,0,0,1-1.61-1.6v-5a1.62,1.62,0,0,1,1.61-1.61h5a1.62,1.62,0,0,1,1.61,1.61Zm0-11.1a1.61,1.61,0,0,1-1.61,1.61h-5A1.61,1.61,0,0,1,88,129.12v-5a1.61,1.61,0,0,1,1.61-1.61h5a1.61,1.61,0,0,1,1.61,1.61Zm11.12,11.1a1.6,1.6,0,0,1-1.6,1.6h-5a1.61,1.61,0,0,1-1.61-1.6v-5a1.62,1.62,0,0,1,1.61-1.61h5a1.61,1.61,0,0,1,1.6,1.61Zm0-11.1a1.61,1.61,0,0,1-1.6,1.61h-5a1.62,1.62,0,0,1-1.61-1.61v-5a1.62,1.62,0,0,1,1.61-1.61h5a1.61,1.61,0,0,1,1.6,1.61Zm11.13,11.1a1.61,1.61,0,0,1-1.61,1.6h-5a1.61,1.61,0,0,1-1.61-1.6v-5a1.62,1.62,0,0,1,1.61-1.61h5a1.62,1.62,0,0,1,1.61,1.61Zm0-11.1a1.62,1.62,0,0,1-1.61,1.61h-5a1.62,1.62,0,0,1-1.61-1.61v-5a1.62,1.62,0,0,1,1.61-1.61h5a1.62,1.62,0,0,1,1.61,1.61Zm11.12,11.1a1.61,1.61,0,0,1-1.61,1.6h-5a1.6,1.6,0,0,1-1.6-1.6v-5a1.61,1.61,0,0,1,1.6-1.61h5a1.62,1.62,0,0,1,1.61,1.61Zm-5.15-26.09c-.65,2.18-2.11,2.42-4.13,1.69-3.17-1.15-6.42-2.08-9.63-3.11l-18.45-5.86c1.31-3.17,2.44-5.91,4.11-9.93l27.17,11.8C126.58,110,125.06,112.21,124.49,114.13Z"/><path class="cls-2" d="M80.83,33.56h19.26a.93.93,0,0,1,.93.93v5.12a.93.93,0,0,1-.93.93H80.17a10.31,10.31,0,0,0,1-4.4A10.48,10.48,0,0,0,80.83,33.56Z"/><circle class="cls-2" cx="70.82" cy="36.14" r="7.27"/><path class="cls-2" d="M41.56,40.54a.93.93,0,0,1-.93-.93V34.49a.93.93,0,0,1,.93-.93H60.82a10,10,0,0,0-.33,2.58,10.32,10.32,0,0,0,1,4.4Z"/><path class="cls-2" d="M48.58,61.93c-.63-5-.11-4.74-.11-9.55H94.93c0,4.81.52,4.51-.12,9.55-1.19,9.54-5.66,14.15-15.2,15.45a59.37,59.37,0,0,1-7.91.44,59.52,59.52,0,0,1-7.92-.44C54.24,76.08,49.78,71.47,48.58,61.93Z"/><rect class="cls-2" x="22.63" y="122.46" width="24.78" height="6.06" rx="1.18"/><path class="cls-2" d="M32.67,112.71c-3.22,1-6.46,2-9.64,3.11-2,.73-3.48.49-4.13-1.69-.57-1.92-2.09-4.09.94-5.41L47,96.92l4.11,9.93Z"/><path class="cls-2" d="M52.23,96.35c.56-.36,1.07-.67,1.56-1a16.29,16.29,0,0,1,3.32-1.62,6.1,6.1,0,0,1,.79-.2,5,5,0,0,1,2.29.09,16.73,16.73,0,0,1,5.06,2.76c.58.41,1.21.86,1.88,1.36l.37.27h0l-5.24,4.42-5.57,4.7c-1.2-2.92-2.31-5.62-3.39-8.23C52.94,98.07,52.59,97.21,52.23,96.35Z"/><polygon class="cls-2" points="69.11 115.95 63.91 141.21 56.48 113.47 65.17 106.28 69.11 115.95"/><path class="cls-2" d="M62.15,89.65l1.34-5.39H79.91l1.34,5.39c-4.33,3-7.07,4.65-9.55,4.93C69.21,94.3,66.47,92.67,62.15,89.65Z"/><polygon class="cls-2" points="79.48 141.19 74.28 115.95 78.23 106.28 86.92 113.47 79.48 141.19"/><path class="cls-2" d="M86.7,107.17,75.9,98.05c7.71-5.71,8.73-5.82,15.26-1.7C89.74,99.78,88.31,103.27,86.7,107.17Z"/><rect class="cls-2" x="88.02" y="133.57" width="8.25" height="8.25" rx="1.61"/><rect class="cls-2" x="88.02" y="122.48" width="8.25" height="8.25" rx="1.61"/><rect class="cls-2" x="99.14" y="133.57" width="8.25" height="8.25" rx="1.61"/><rect class="cls-2" x="99.14" y="122.48" width="8.25" height="8.25" rx="1.61"/><rect class="cls-2" x="110.26" y="133.57" width="8.25" height="8.25" rx="1.61"/><rect class="cls-2" x="110.26" y="122.48" width="8.25" height="8.25" rx="1.61"/><rect class="cls-2" x="121.39" y="133.57" width="8.25" height="8.25" rx="1.61"/><rect class="cls-2" x="121.39" y="122.48" width="8.25" height="8.25" rx="1.61"/><path class="cls-2" d="M124.49,114.13c-.65,2.18-2.11,2.42-4.13,1.69-3.17-1.15-6.42-2.08-9.63-3.11l-18.45-5.86c1.31-3.17,2.44-5.91,4.11-9.93l27.17,11.8C126.58,110,125.06,112.21,124.49,114.13Z"/></g></g></svg>