<?xml version="1.0" encoding="utf-8"?>
<!-- Generator: Adobe Illustrator 23.0.3, SVG Export Plug-In . SVG Version: 6.00 Build 0)  -->
<svg version="1.1" id="圖層_1" xmlns="http://www.w3.org/2000/svg" xmlns:xlink="http://www.w3.org/1999/xlink" x="0px" y="0px"
	 viewBox="0 0 123.4 136.4" style="enable-background:new 0 0 123.4 136.4;" xml:space="preserve">
<style type="text/css">
	.st0{fill:#FFFFFF;}
</style>
<title>資產 5</title>
<g>
	<g id="Layer_2">
		<path class="st0" d="M39.8,72.8l-3.5-13.3H13.4L0,136.4h15.8v-18C15.8,100.8,24.8,82.9,39.8,72.8z"/>
		<path class="st0" d="M7.8,30.7h34.4c1,0,1.8-0.8,1.8-1.8c0-0.2,0-0.4-0.1-0.6L40.7,19c-0.2-0.7-0.9-1.2-1.7-1.2H26.7v-6
			c0-1.7,0.6-1.5,1.3-1.6c2.1-0.2,4.3-0.2,6.4-0.3c3.5-0.1,10.1-1.4,9.8-3.7c-0.2-0.7-6-1.6-8.9-2.5C32.9,3,30.5,2.2,28,1.4
			c-0.8-0.3-1.9,0-2.4-1.1c-0.2-0.6-1.4-0.2-1.6,0.5c0,0.3,0,0.6,0,0.9c0,2,0,11,0,16.1H11.4c-0.8,0-1.4,0.5-1.7,1.2l-3.6,9.3
			c-0.4,0.9,0.1,2,1,2.3C7.4,30.7,7.6,30.7,7.8,30.7z M26.7,3.7C28,3.8,31,4.7,34.1,5.4c2.1,0.4,4.4,0.6,5.8,0.9
			c0.5,0.1,0.7,0.7,0.3,0.8c-1.4,0.6-2.7,0.8-5.5,0.9c-3,0.1-6.9,0.1-8,0.2L26.7,3.7z M33.6,21.4h4.5c0.3,0,0.5,0.2,0.6,0.4l1.6,4.5
			c0.1,0.3-0.1,0.7-0.4,0.8c-0.1,0-0.1,0-0.2,0h-6.1V21.4z M21.9,21.4h7.3v5.7h-7.3V21.4z M11,26.3l1.6-4.5c0.1-0.3,0.3-0.4,0.6-0.4
			h4.3v5.7h-5.9c-0.3,0-0.6-0.2-0.7-0.6C11,26.5,11,26.4,11,26.3z"/>
		<path class="st0" d="M14,53.6h21.7c1.6,0,2.9-1.3,2.9-2.9c0,0,0,0,0,0l1.8-17.4h-31l1.8,17.4C11.1,52.3,12.4,53.6,14,53.6z"/>
		<rect x="52.1" y="110.2" class="st0" width="15.6" height="26.2"/>
		<rect x="80.6" y="110.2" class="st0" width="15.6" height="26.2"/>
		<path class="st0" d="M107.8,83.1l-0.2-0.1c-7.3-6.4-16.7-9.8-26.4-9.8h-6.4c0-4,0-8.6,0-9.8c0-3.3,1.3-3,2.7-3.1
			c4.2-0.4,8.5-0.5,12.8-0.6c7-0.2,20.1-2.8,19.6-7.4c-0.4-1.4-12-3.1-17.8-5c-4.9-1.6-9.7-3.3-14.5-4.9c-1.7-0.5-3.7,0-4.8-2.2
			c-0.6-1.2-2.9-0.5-3.3,1c-0.1,0.6-0.1,1.2-0.1,1.8v30H67c-9.1-0.1-18,3-25.1,8.7c-0.5,0.4-1,0.8-1.5,1.2
			c-9.7,8.6-15.6,20.3-15.6,33.1v20.2h22.6v-30.2h24.8v30.2H76v-30.2h24.8v30.2h22.6v-20.2C123.4,103.3,117.5,91.7,107.8,83.1z
			 M75,47.1c2.5,0.3,8.6,2.1,14.7,3.4c4.2,0.9,8.8,1.2,11.7,1.9c0.9,0.2,1.4,1.3,0.6,1.7c-2.8,1.3-5.3,1.6-11,1.7
			c-6,0.2-13.8,0.2-15.9,0.4L75,47.1z M54.7,98H44.5c-1.8,0-3.3-1.5-3.3-3.3c0-1.8,1.5-3.3,3.3-3.3h10.2c1.8,0,3.3,1.5,3.3,3.3
			C58,96.5,56.5,98,54.7,98z M78.9,98H68.7c-1.8,0-3.3-1.5-3.3-3.3c0-1.8,1.5-3.3,3.3-3.3h10.2c1.8,0,3.3,1.5,3.3,3.3
			C82.1,96.5,80.7,98,78.9,98z M103.1,98H92.9c-1.8,0-3.3-1.5-3.3-3.3c0-1.8,1.5-3.3,3.3-3.3h10.2c1.8,0,3.3,1.5,3.3,3.3
			C106.3,96.5,104.9,98,103.1,98C103.1,98,103.1,98,103.1,98z"/>
	</g>
</g>
</svg>
