<svg xmlns="http://www.w3.org/2000/svg" viewBox="0 0 167.48 168.14"><defs><style>.cls-1{fill:#a91026;}.cls-2{fill:#fff;}</style></defs><g id="圖層_2" data-name="圖層 2"><g id="Layer_1_1:1_" data-name="Layer 1 (1:1)"><path class="cls-1" d="M164,113.82c-.14-.33-.34-.63-.56-1a124.3,124.3,0,0,1-14.28,5.38v-6.41c4.87-1.18,9.78-2,14.85-1.24l0-.06a95.88,95.88,0,0,1-4.6-33.33.86.86,0,0,0-1.58-.53c-6.36,9.72-22.6,33.77-26.39,39.75l-.81,1.32c-.07-.51-.14-1-.2-1.55a113.19,113.19,0,0,1,1-31.25c1.68-10,2.35-18.11,7-27.11.27-.53,1.6-2.57-1.5-2.57-8.64,0-33.18-.74-33.18-.74V49.93c4.72.31,19.17,2.41,19,2.25-4.22-5.81-8.12-22.75-8.22-26H101V24.15c.56-.17,3.38-.25,3.48-.53.63-1.68,1.1-3.41,1.67-5.25H101V15a11.49,11.49,0,0,1,8.19-.49c1.89.6,3.79,1.16,5.71,1.62,3.29.8,6.56.31,9.8-.4,1.59-.34,3.16-.71,4.75-1,2.19-.47,7.45-2.8,9.89-2.09a32.38,32.38,0,0,0-8.29-4.93,14,14,0,0,0-4.5-1.06c-4.72-.28-6.06,1.76-11-.56a13,13,0,0,1-2-.9A15.42,15.42,0,0,0,101,2.75V0H96.46V18.37H91.31c.57,1.84,1,3.57,1.67,5.25.1.28,2.94.36,3.48.54v2L86,26.06S79.13,35,79.19,41.26h0a17.89,17.89,0,0,0,2,11.6c3.76-2.65,8.15-2.63,12.43-3l0,0v4.53l-23.57,0a1.33,1.33,0,0,0-.71.16c-1.33.82-3.74,3.94-4.65,5.88-4.19,8.89-5.09,15.78-5.83,24.85a107.31,107.31,0,0,0,.55,23.15c.92,6.65,2.34,13.17,5.57,19.14.73,1.36,1.66,2.62,2.57,4a15.43,15.43,0,0,1,5.67-3.46,49,49,0,0,1,11.21-2.48c3.06-.36,6.12-.63,9.19-.92v14.74h0a61.72,61.72,0,0,1-19.32-2.87A30.25,30.25,0,0,1,60,126.86a6.9,6.9,0,0,0-4.8-2.54c-4.84-.43-9.67-1-14.55-1.56v-7.44a41,41,0,0,1,14.76,4.11c-.39-2-.76-3.82-1.13-5.66C53.11,108.08,52,102.4,52,96.58a24.83,24.83,0,0,1,2.17-11,22.15,22.15,0,0,1,1.47-2.48c.54-.82-15-2.27-15-2.27V77c5,.13,5.51-.23,10.35.76a19.88,19.88,0,0,1-1.58-8.77,57.87,57.87,0,0,1,.93-8H40.6V59l3-.13V55.7l-3-.14V54.07H36.06v1.5l-3,.13v3.17l3,.13v1.58s-7.71,0-7.45,0c-4.5,5.19-6,11.84-3.11,18.44,3.4-1.85,7-1.87,10.56-2.1v3.84s-15,.54-15.48,1-.8.91-1.15,1.35A22.31,22.31,0,0,0,15.2,93.34a36.85,36.85,0,0,0,1.73,20.18,45.85,45.85,0,0,0,2.21,4.21c4.35-3.11,9.17-3.29,14-3.29.95,0,1.91.08,2.89.16v7.47C21,119.65.55,110.48,0,113.44s9.56,5,13,6.31a2.8,2.8,0,0,1,.89.46c-.59,0-1.19,0-1.79,0-.95,0-1.92,0-2.87-.13a2.68,2.68,0,0,0-2.26.81c-3.82,3.45-4.86,10.84-1.9,15h0c4.1-2.05,8.48-2.07,12.85-1.78,3.34.22,6.66.76,9.86,1.15-2.64-3.13-4.35-6.74-3.13-11.39,1.79.71,3.46,1.32,5.09,2,.24.11.35.7.38,1.08a43.81,43.81,0,0,0,3.29,14.31c6,14,20.56,24.7,35,26,8.21.75,42.2,1.2,50.9.52,12.91-1,31.63-11.25,33.42-26.44a17.59,17.59,0,0,0,.1-2.05,3.42,3.42,0,0,1,1.7-3,9,9,0,0,1,.85-.5c2.81-1.29,4-3.61,4.05-6.56a1.44,1.44,0,0,1,.86-1.38c1.87-1.08,3.71-2.22,5.51-3.4a12.14,12.14,0,0,0,1.61-1.52v-1.08Q165.76,117.86,164,113.82Zm-40.92,21.63c-5.93,2.83-12.71,3-19.26,3.58V124.3a126.66,126.66,0,0,1,27.67,3A19.15,19.15,0,0,1,123.09,135.45Zm20-15.46c-3.12.84-6.25,1.68-9.39,2.46-.68.17-.95.4-1,1.15,0,.38-.09.75-.16,1.11a22.56,22.56,0,0,1-1.53-5.33,78.07,78.07,0,0,1,12.09-5.84Z"/><path class="cls-2" d="M78.69,116.85a53,53,0,0,0-6.24,1.41,104.25,104.25,0,0,1-2.31-34.79c1-9.28,1.26-15.38,4.86-23.86a20.92,20.92,0,0,1,6.35.79c-3.52,8.31-3.83,14.33-4.74,23A100.76,100.76,0,0,0,78.69,116.85Z"/><path class="cls-2" d="M30.41,109.12c-2.05,0-3.95.16-5.67.34-1.78-6.7-2.54-13.1-.8-20.21.29-1.15.6-2.26.95-3.35,2,.06,4,.15,5.89.27-.39,1.17-.73,2.35-1,3.56C28,96.55,28.76,102.66,30.41,109.12Z"/><path class="cls-2" d="M31.3,72.49a10.51,10.51,0,0,1,1.56-7.77c2,0,6.92.11,9.73.16-.11,1.05-.22,2.28-.24,3.39a21.06,21.06,0,0,0,.2,3.47,35.68,35.68,0,0,0-4.07-.23A23,23,0,0,0,31.3,72.49Z"/><path class="cls-2" d="M38.7,89.54c.31-1.25.66-2.46,1-3.64,1.5.14,3.26.18,5.77.38-.33,1-.73,2.67-1,3.74-1.72,6.81-1.28,12.34-.26,18.93-2-.15-4-.22-5.68-.21C37.45,101.9,37,96.65,38.7,89.54Z"/><path class="cls-2" d="M110.93,84c.83-7.53,1.82-16.17,4.9-23.63a31,31,0,0,1,6.56.44c-3.31,7.34-4.16,15.89-5,23.2a78.21,78.21,0,0,0,2,28.61c.53,2,1.11,3.84,1.72,5.56-2.12-.38-4.45-.74-7-1.06-.4-1.28-.79-2.6-1.16-4.06A82,82,0,0,1,110.93,84Z"/><path class="cls-2" d="M98.53,115.81s0,.1,0,.15c-2-.06-4-.11-6.17-.12H92A99.49,99.49,0,0,1,89.87,83c.87-8.52,1.84-15.31,5-23a14,14,0,0,1,6.61.26C98.22,68,97.2,74.86,96.33,83A95.56,95.56,0,0,0,98.53,115.81Z"/><path class="cls-2" d="M100.05,42.58a119.45,119.45,0,0,0-12.17.58s-.71-6.37,2.28-11a136.92,136.92,0,0,0,17.29,0c1.14,4.08,1.35,7.81,3.87,12C111.32,44.2,103,42.61,100.05,42.58Z"/></g></g></svg>