<svg xmlns="http://www.w3.org/2000/svg" viewBox="0 0 134.22 134.75"><defs><style>.cls-1{fill:#a91026;}</style></defs><title>資產 3</title><g id="圖層_2" data-name="圖層 2"><g id="Layer_2" data-name="Layer 2"><path class="cls-1" d="M131.43,91.21c-.11-.26-.27-.51-.44-.83a99,99,0,0,1-11.45,4.31V89.56a31.4,31.4,0,0,1,11.9-1l0,0A76.86,76.86,0,0,1,127.8,61.8a.69.69,0,0,0-1.27-.42c-5.1,7.79-18.11,27.06-21.15,31.86,0,.07-.32.51-.65,1.05-.06-.41-.11-.82-.16-1.24a91,91,0,0,1,.81-25c1.35-8,1.89-14.51,5.62-21.72.22-.42,1.28-2.06-1.21-2.06-6.92,0-26.58-.59-26.58-.59V40c3.78.24,15.36,1.92,15.24,1.8C95.07,37.16,91.94,23.59,91.86,21H80.94V19.36c.45-.15,2.71-.21,2.79-.43.5-1.35.88-2.74,1.33-4.21H80.94V12a9.28,9.28,0,0,1,6.57-.39c1.51.48,3,.93,4.57,1.3a17.22,17.22,0,0,0,7.85-.32c1.27-.27,2.54-.57,3.8-.84,1.77-.37,6-2.24,7.93-1.67A25.81,25.81,0,0,0,105,6.17a11.2,11.2,0,0,0-3.6-.85c-3.79-.22-4.86,1.41-8.79-.45A10.45,10.45,0,0,1,91,4.15a12.34,12.34,0,0,0-10-1.94V0H77.3V14.72H73.17c.46,1.47.83,2.86,1.34,4.21.08.22,2.36.29,2.79.43V21L69,20.89S63.41,28,63.46,33.07h0A14.32,14.32,0,0,0,65,42.37c3-2.13,6.53-2.11,10-2.42l0,0v3.63l-18.89,0a1.11,1.11,0,0,0-.57.13,14.75,14.75,0,0,0-3.72,4.7c-3.36,7.14-4.08,12.66-4.67,19.92a85.23,85.23,0,0,0,.44,18.55c.73,5.33,1.87,10.56,4.46,15.34.59,1.09,1.33,2.1,2.06,3.24a12.32,12.32,0,0,1,4.54-2.77,39,39,0,0,1,9-2c2.45-.29,4.9-.51,7.36-.74v11.82h0a49.23,49.23,0,0,1-15.48-2.3A24.23,24.23,0,0,1,48,101.66a5.51,5.51,0,0,0-3.85-2c-3.87-.35-7.74-.82-11.65-1.25v-6a32.73,32.73,0,0,1,11.83,3.29c-.32-1.59-.62-3.06-.91-4.54a71,71,0,0,1-1.8-13.77,19.78,19.78,0,0,1,1.75-8.84,15.83,15.83,0,0,1,1.17-2c.44-.66-12-1.82-12-1.82v-3.1c4,.11,4.41-.18,8.29.61a15.94,15.94,0,0,1-1.27-7,46.55,46.55,0,0,1,.75-6.45H32.54V47.29l2.38-.11V44.64l-2.38-.11v-1.2H28.89v1.2l-2.43.11v2.54l2.43.1v1.27s-6.17,0-6,0c-3.61,4.16-4.81,9.49-2.5,14.78,2.73-1.49,5.58-1.51,8.46-1.69v3.08s-12,.43-12.39.84-.65.72-.93,1.07a17.9,17.9,0,0,0-3.39,8.17A29.43,29.43,0,0,0,13.57,91a35.2,35.2,0,0,0,1.77,3.38c3.49-2.5,7.35-2.64,11.24-2.64.76,0,1.53.07,2.31.12v6C16.86,95.89.44,88.54,0,90.91s7.66,4,10.44,5a2.24,2.24,0,0,1,.72.37c-.48,0-.95,0-1.43,0-.77,0-1.54,0-2.31-.1a2.14,2.14,0,0,0-1.81.65c-3.06,2.76-3.89,8.68-1.52,12h0c3.29-1.65,6.8-1.66,10.3-1.43,2.67.18,5.33.61,7.9.92-2.11-2.51-3.48-5.4-2.51-9.13,1.43.57,2.78,1.06,4.08,1.64.2.09.28.57.31.87a34.85,34.85,0,0,0,2.63,11.47C31.65,124.45,43.3,133,54.88,134.07c6.58.59,33.82,1,40.79.41,10.34-.82,25.35-9,26.78-21.19a12.78,12.78,0,0,0,.08-1.64,2.78,2.78,0,0,1,1.36-2.4,5.28,5.28,0,0,1,.69-.39,5.46,5.46,0,0,0,3.24-5.27,1.14,1.14,0,0,1,.69-1.1q2.25-1.3,4.42-2.73a10.46,10.46,0,0,0,1.29-1.21v-.87C133.29,95.52,132.37,93.37,131.43,91.21ZM63,93.64a41.39,41.39,0,0,0-5,1.13,83.46,83.46,0,0,1-1.85-27.88c.77-7.44,1-12.32,3.89-19.12a16.69,16.69,0,0,1,5.09.63c-2.82,6.66-3.06,11.49-3.8,18.43A80.73,80.73,0,0,0,63,93.64Zm-38.7-6.19c-1.64,0-3.16.12-4.54.27-1.43-5.37-2-10.5-.64-16.2.23-.92.48-1.81.76-2.68,1.6,0,3.19.12,4.72.21-.31.94-.59,1.89-.83,2.86C22.38,77.37,23,82.27,24.29,87.45ZM25,58.09a8.45,8.45,0,0,1,1.24-6.23l7.81.14a26.36,26.36,0,0,0-.2,2.71A16.26,16.26,0,0,0,34,57.49a28.94,28.94,0,0,0-3.26-.19A18.61,18.61,0,0,0,25,58.09Zm5.93,13.66c.25-1,.52-2,.83-2.91,1.2.11,2.61.14,4.62.3-.26.83-.58,2.15-.8,3-1.37,5.46-1,9.89-.21,15.17-1.64-.12-3.16-.18-4.55-.17C29.93,81.66,29.54,77.45,30.94,71.75Zm57.88-4.44c.66-6,1.46-13,3.93-18.93a23.47,23.47,0,0,1,5.25.35c-2.65,5.88-3.33,12.73-4,18.58a62.47,62.47,0,0,0,1.59,22.93c.42,1.62.89,3.08,1.38,4.46-1.7-.31-3.57-.6-5.64-.85-.32-1-.64-2.09-.93-3.25A65.55,65.55,0,0,1,88.82,67.31Zm-9.94,25.5,0,.12c-1.57-.05-3.21-.09-4.94-.1h-.35a79.68,79.68,0,0,1-1.68-26.3c.7-6.83,1.48-12.27,4-18.44a11.1,11.1,0,0,1,5.29.2C78.63,54.48,77.81,60,77.12,66.5A76.82,76.82,0,0,0,78.88,92.81ZM80.1,34.12a97.15,97.15,0,0,0-9.76.47s-.56-5.1,1.84-8.84a108.5,108.5,0,0,0,13.85,0C87,29,87.11,32,89.13,35.42A86.34,86.34,0,0,0,80.1,34.12Zm18.54,74.43c-4.75,2.27-10.18,2.37-15.43,2.87V99.61A101.2,101.2,0,0,1,105.38,102,15.38,15.38,0,0,1,98.64,108.55Zm16-12.39c-2.5.67-5,1.34-7.53,2-.54.14-.76.32-.81.92a8.28,8.28,0,0,1-.13.89A18.76,18.76,0,0,1,105,95.67,62.68,62.68,0,0,1,114.64,91Z"/></g></g></svg>