<svg xmlns="http://www.w3.org/2000/svg" viewBox="0 0 84.07 90.48"><defs><style>.cls-1,.cls-2{fill:#a91026;}.cls-2{stroke:#fff;stroke-miterlimit:10;stroke-width:3px;}.cls-3{fill:#fff;}.cls-4{fill:#610007;}</style></defs><title>資產 5</title><g id="圖層_2" data-name="圖層 2"><g id="Layer_5" data-name="Layer 5"><polygon class="cls-1" points="66.84 52.3 43.01 52.3 41.06 52.3 17.24 52.3 0 89.28 41.24 89.28 42.84 89.28 84.07 89.28 66.84 52.3"/><path class="cls-2" d="M65.84,25.31A23.81,23.81,0,1,0,23.1,39.74C29.93,48.68,34,62.42,39.28,72.28a2.61,2.61,0,0,0,2.15,1.36l.61,0h0a2.62,2.62,0,0,0,2.06-1.35c5.48-10.07,10.59-23.82,17.3-33.17A23.65,23.65,0,0,0,65.84,25.31Z"/><circle class="cls-3" cx="42.04" cy="22.03" r="14.15"/><rect class="cls-4" y="89.28" width="84.07" height="1.2"/></g></g></svg>