<svg xmlns="http://www.w3.org/2000/svg" viewBox="0 0 323.25 90.19"><defs><style>.cls-1{fill:#a91026;}.cls-2{fill:#fff;}</style></defs><title>資產 4</title><g id="圖層_2" data-name="圖層 2"><g id="Layer_5" data-name="Layer 5"><rect class="cls-1" width="323.25" height="90.19" rx="5.02"/><path class="cls-2" d="M317.53,4.94H5.72a.41.41,0,0,0-.41.42V84.83a.41.41,0,0,0,.41.42H317.53a.42.42,0,0,0,.42-.42V5.36A.42.42,0,0,0,317.53,4.94Zm-3.09,41.84a4.57,4.57,0,0,1,0,.74l-15,35H23.87L8.81,43.4a4.57,4.57,0,0,1,0-.74l15-35H299.39Z"/></g></g></svg>