<svg xmlns="http://www.w3.org/2000/svg" viewBox="0 0 156.1 156.1"><defs><style>.cls-1,.cls-2{fill:#fff;}.cls-1{fill-opacity:0.65;}</style></defs><title>資產 36</title><g id="圖層_2" data-name="圖層 2"><g id="aw"><path class="cls-1" d="M78.05,0A78.05,78.05,0,1,0,156.1,78.05,78,78,0,0,0,78.05,0Zm0,133.6A55.55,55.55,0,1,1,133.6,78.05,55.55,55.55,0,0,1,78.05,133.6Z"/><path class="cls-1" d="M78.15,125.47v-4.85h.92l.11,4.85Zm-8.25-.69-1-.19.92-4.77.91.17Zm17.5-.23-1-4.76.9-.19,1.05,4.74Zm-26.46-2.26-1-.38,1.85-4.49.85.34Zm35.36-.46-1.87-4.48.85-.36,2,4.43Zm-43.67-3.74-.85-.55,2.69-4,.77.5Zm51.87-.67-2.71-4,.75-.52,2.8,4Zm-59.18-5.06-.74-.71L48,108.21l.65.64Zm66.35-.86-3.44-3.43.64-.65,3.52,3.34Zm-72.42-6.18c-.2-.28-.4-.56-.59-.85l4-2.71c.17.26.35.51.52.76Zm78.3-1-4-2.7c.17-.25.34-.51.5-.77l4.1,2.61C117.93,103.73,117.74,104,117.55,104.3ZM34.66,97.21c-.14-.31-.27-.62-.41-.94l4.49-1.86c.11.28.24.56.36.85Zm87.26-1.12-4.49-1.85c.12-.28.23-.57.34-.85l4.53,1.74C122.18,95.45,122.05,95.77,121.92,96.09ZM31.75,88.37l-.21-1,4.76-1c.06.3.13.6.19.9Zm92.85-1.2-4.77-.93c.06-.3.11-.6.17-.9l4.78.82Zm-94-8c0-.34,0-.68,0-1h4.85c0,.31,0,.61,0,.92Zm94.83-1.09h-4.85c0-.31,0-.61,0-.92l4.85-.1C125.47,77.37,125.47,77.71,125.47,78.05ZM36.11,70.7l-4.78-.83c.06-.34.12-.68.19-1l4.76.94C36.22,70.1,36.17,70.4,36.11,70.7Zm83.7-1c-.06-.3-.13-.6-.19-.9l4.74-1,.21,1ZM38.35,62.66,33.82,60.9c.12-.32.25-.63.38-.95l4.49,1.86C38.57,62.09,38.46,62.37,38.35,62.66Zm79-.91c-.12-.28-.24-.57-.37-.85l4.45-2c.13.32.27.63.4,1ZM42.12,55.21,38,52.61c.19-.29.37-.58.56-.86l4,2.7C42.45,54.7,42.28,55,42.12,55.21Zm71.32-.82c-.17-.26-.34-.51-.52-.76l4-2.79.58.84ZM47.27,48.64l-3.51-3.35.71-.73L47.91,48Zm60.87-.71-.66-.63,3.35-3.52.74.72ZM53.61,43.19l-2.8-4,.85-.58,2.7,4Zm48.07-.55-.77-.51L103.53,38l.85.56ZM60.87,39.09l-2-4.44.94-.41,1.87,4.48Zm33.45-.39-.85-.34,1.76-4.53,1,.38ZM68.81,36.49l-1-4.74c.33-.08.66-.15,1-.21l.95,4.76Zm17.52-.2-.9-.17.84-4.79,1,.19Zm-9.23-.8L77,30.64h1v4.85Z"/><path class="cls-2" d="M78.05,131.14A53.42,53.42,0,0,1,27.2,93.34,1.46,1.46,0,1,1,30,92.5a50.19,50.19,0,0,0,96.12,0,1.46,1.46,0,1,1,2.79.84A53.42,53.42,0,0,1,78.05,131.14Z"/><path class="cls-2" d="M127.5,64.64a1.46,1.46,0,0,1-1.39-1A50.19,50.19,0,0,0,30,63.6a1.46,1.46,0,1,1-2.79-.84,53.1,53.1,0,0,1,101.7,0,1.47,1.47,0,0,1-1,1.82A1.52,1.52,0,0,1,127.5,64.64Z"/><polygon class="cls-2" points="61.68 60.99 61.68 98.41 102.25 79.7 61.68 60.99"/></g></g></svg>